HIERARCHY
ROOT Hips
{
	OFFSET 0.000000 0.000000 0.000000 
	CHANNELS 6 Xposition Yposition Zposition Zrotation Yrotation Xrotation
	JOINT LeftUpLeg
	{
		OFFSET 1.363060 -1.794630 0.839290 
		CHANNELS 3 Zrotation Yrotation Xrotation
		JOINT LeftLeg
		{
			OFFSET 2.448110 -6.726130 0.000000 
			CHANNELS 3 Zrotation Yrotation Xrotation
			JOINT LeftFoot
			{
				OFFSET 2.562200 -7.039590 0.000000 
				CHANNELS 3 Zrotation Yrotation Xrotation
				JOINT LeftToeBase
				{
					OFFSET 0.157640 -0.433110 2.322550 
					CHANNELS 3 Zrotation Yrotation Xrotation
					End Site
					{
						OFFSET 0.000000 0.000000 0.000000 
					}
				}
			}
		}
	}
	JOINT RightUpLeg
	{
		OFFSET -1.305520 -1.794630 0.839290 
		CHANNELS 3 Zrotation Yrotation Xrotation
		JOINT RightLeg
		{
			OFFSET -2.542530 -6.985550 0.000000 
			CHANNELS 3 Zrotation Yrotation Xrotation
			JOINT RightFoot
			{
				OFFSET -2.568260 -7.056230 0.000000 
				CHANNELS 3 Zrotation Yrotation Xrotation
				JOINT RightToeBase
				{
					OFFSET -0.164730 -0.452590 2.363150 
					CHANNELS 3 Zrotation Yrotation Xrotation
					End Site
					{
						OFFSET 0.000000 0.000000 0.000000 
					}
				}
			}
		}
	}
	JOINT Spine
	{
		OFFSET 0.028270 2.035590 -0.193380 
		CHANNELS 3 Zrotation Yrotation Xrotation
		JOINT Spine1
		{
			OFFSET 0.056720 2.048850 -0.042750 
			CHANNELS 3 Zrotation Yrotation Xrotation
			JOINT Neck1
			{
				OFFSET -0.054170 1.746240 0.172020 
				CHANNELS 3 Zrotation Yrotation Xrotation
				JOINT Head
				{
					OFFSET 0.104070 1.761360 -0.123970 
					CHANNELS 3 Zrotation Yrotation Xrotation
					End Site
					{
						OFFSET 0.000000 0.000000 0.000000 
					}
				}
			}
			JOINT LeftArm
			{
				OFFSET 3.362410 1.200890 -0.311210 
				CHANNELS 3 Zrotation Yrotation Xrotation
				JOINT LeftForeArm
				{
					OFFSET 4.983000 -0.000000 -0.000000 
					CHANNELS 3 Zrotation Yrotation Xrotation
					JOINT LeftHand
					{
						OFFSET 3.483560 -0.000000 -0.000000 
						CHANNELS 3 Zrotation Yrotation Xrotation
						JOINT LeftHandIndex1
						{
							OFFSET 0.715260 -0.000000 -0.000000 
							CHANNELS 3 Zrotation Yrotation Xrotation
							End Site
							{
								OFFSET 0.000000 0.000000 0.000000 
							}
						}
					}
				}
			}
			JOINT RightArm
			{
				OFFSET -3.136600 1.374050 -0.404650 
				CHANNELS 3 Zrotation Yrotation Xrotation
				JOINT RightForeArm
				{
					OFFSET -5.241900 -0.000000 -0.000000 
					CHANNELS 3 Zrotation Yrotation Xrotation
					JOINT RightHand
					{
						OFFSET -3.444170 -0.000000 -0.000000 
						CHANNELS 3 Zrotation Yrotation Xrotation
						JOINT RightHandIndex1
						{
							OFFSET -0.622530 -0.000000 -0.000000 
							CHANNELS 3 Zrotation Yrotation Xrotation
							End Site
							{
								OFFSET 0.000000 0.000000 0.000000 
							}
						}
					}
				}
			}
		}
	}
}
MOTION
Frames: 18
Frame Time: 0.041667
-0.870040 17.927146 2.256967 0.882099 -14.855036 8.114209 -16.121650 -4.849425 -8.369458 -0.480369 5.730103 19.000313 -3.874269 17.045730 -11.020997 0.900200 -6.046900 -16.920600 9.009740 12.900429 -16.963733 -1.288763 -9.133753 27.378868 -0.507836 0.784529 -4.764888 -0.047800 -1.410500 3.879100 1.800854 -1.836124 -2.883120 5.090894 -0.419608 -0.881651 5.833620 -9.134459 18.430209 3.193200 -4.789800 13.243300 -78.692262 2.267464 29.897282 11.387306 -22.292238 -2.596033 -0.198338 -1.609279 10.301888 -7.125000 0.000000 0.000000 71.405003 0.039676 22.241693 -15.437178 22.330100 -3.765016 0.658725 -0.500235 17.867294 7.125000 0.000000 0.000000 
-0.865609 17.926340 2.259485 0.772743 -14.901917 8.033817 -16.033382 -4.805488 -8.365749 -0.453208 5.793622 19.181536 -3.860478 17.015620 -11.133365 0.899300 -6.043700 -16.911200 9.131071 13.034312 -16.742935 -1.269857 -9.093840 27.280770 -0.470797 0.599794 -4.856139 -0.039100 -1.276500 3.509900 1.835541 -1.808869 -2.845934 5.120486 -0.406753 -0.861887 5.794396 -9.098321 18.404392 3.186100 -4.781400 13.210000 -78.751331 2.184810 29.775584 11.351556 -22.231832 -2.578817 -0.214945 -1.601445 10.517885 -7.125000 0.000000 0.000000 71.371238 0.068512 22.390433 -15.476150 22.374023 -3.779385 0.672365 -0.486864 17.743166 7.125000 0.000000 0.000000 
-0.862789 17.924930 2.259988 0.368923 -14.908748 7.944716 -15.604489 -4.760668 -8.398319 -0.404275 5.911326 19.499537 -3.832711 16.919304 -11.273978 0.888800 -6.009300 -16.811500 9.591478 13.275843 -16.337862 -1.233043 -9.010454 27.093583 -0.416300 0.335606 -5.040071 -0.031300 -1.142900 3.142100 1.899023 -1.775412 -2.828683 5.016048 -0.384758 -0.965729 5.565643 -9.049957 18.477722 3.082500 -4.778000 13.199100 -78.646455 2.183438 29.872536 11.297580 -22.153035 -2.557746 -0.224794 -1.592378 10.568232 -7.125000 0.000000 0.000000 71.390756 0.007540 22.628808 -15.509459 22.415078 -3.792390 0.682656 -0.480409 17.513381 7.125000 0.000000 0.000000 
-0.860574 17.923823 2.261096 -0.137123 -14.959925 7.775064 -15.088710 -4.674543 -8.272024 -0.368012 5.990195 19.709019 -3.826472 16.889363 -11.391565 0.879100 -5.977300 -16.718500 10.198950 13.477867 -15.886546 -1.211199 -8.950022 26.987256 -0.364313 0.096772 -5.194056 -0.024200 -1.004700 2.761800 1.965200 -1.695607 -2.755210 4.842392 -0.346953 -1.038521 5.443655 -9.046775 18.518456 3.024700 -4.785300 13.206600 -78.498991 2.141090 30.127506 11.294418 -22.149710 -2.554723 -0.226919 -1.595503 10.399142 -7.125000 0.000000 0.000000 71.463394 0.055248 22.651009 -15.486374 22.381122 -3.781175 0.685846 -0.482039 17.482490 7.125000 0.000000 0.000000 
-0.856747 17.922816 2.260895 -0.296162 -15.012053 7.676084 -14.949008 -4.715895 -8.191526 -0.344651 6.046227 19.872388 -3.814047 16.881540 -11.597773 0.851500 -5.885100 -16.451400 10.382408 13.639374 -15.649352 -1.192802 -8.909044 26.890884 -0.324995 -0.085267 -5.243304 -0.026100 -1.043000 2.867200 1.978568 -1.653398 -2.688054 4.783306 -0.330343 -0.984975 5.377643 -8.995127 18.591994 3.005600 -4.770000 13.243900 -78.435555 1.960847 30.312766 11.230474 -22.045590 -2.523405 -0.233814 -1.597345 10.219620 -7.125000 0.000000 0.000000 71.536139 0.148197 22.650079 -15.517046 22.414618 -3.795556 0.685374 -0.495304 17.625878 7.125000 0.000000 0.000000 
-0.851410 17.925434 2.260592 -0.262368 -15.031221 7.697834 -15.005508 -4.718664 -8.271602 -0.329666 6.082932 19.979249 -3.799124 16.842630 -11.638340 0.851700 -5.885800 -16.453600 10.311827 13.708767 -15.641328 -1.179078 -8.885936 26.815883 -0.302829 -0.189592 -5.233358 -0.029600 -1.111100 3.054500 1.946936 -1.644649 -2.677095 4.744263 -0.327878 -0.921189 5.368336 -8.958868 18.634822 3.016400 -4.760800 13.256300 -78.389083 1.876294 30.365684 11.208213 -22.009564 -2.512366 -0.236960 -1.598505 10.158445 -7.125000 0.000000 0.000000 71.614488 0.211662 22.615678 -15.555965 22.465067 -3.816341 0.662920 -0.523237 17.908314 7.125000 0.000000 0.000000 
-0.846275 17.926038 2.259686 -0.222044 -14.975674 7.646397 -15.060518 -4.769285 -8.234319 -0.326259 6.090675 20.003172 -3.806120 16.871200 -11.631952 0.858900 -5.910200 -16.524000 10.260589 13.860661 -15.526935 -1.177904 -8.882109 26.808330 -0.280872 -0.327646 -5.413820 -0.031500 -1.145900 3.150200 1.884641 -1.619171 -2.667367 4.646534 -0.316264 -0.932633 5.364267 -9.035770 18.649559 3.007300 -4.797100 13.260200 -78.306501 1.803452 30.422778 11.179181 -21.963051 -2.497410 -0.242172 -1.600735 10.295989 -7.125000 0.000000 0.000000 71.699873 0.226127 22.434537 -15.545311 22.455879 -3.816361 0.638753 -0.550954 18.328311 7.125000 0.000000 0.000000 
-0.839528 17.925937 2.258679 -0.258154 -14.892926 7.567903 -15.035865 -4.905608 -8.115959 -0.328288 6.089853 20.002596 -3.812028 16.906837 -11.706314 0.846800 -5.869200 -16.405500 10.309870 13.979928 -15.376685 -1.180523 -8.883045 26.822950 -0.252023 -0.488324 -5.566795 -0.029300 -1.104400 3.036100 1.834834 -1.633499 -2.618258 4.520560 -0.327888 -0.890649 5.311803 -9.072061 18.665146 2.965100 -4.808700 13.266700 -78.179218 1.646756 30.484610 11.125947 -21.879317 -2.475597 -0.251261 -1.593551 10.365669 -7.125000 0.000000 0.000000 71.781419 0.298931 22.377263 -15.507067 22.404094 -3.798927 0.636929 -0.553571 18.665034 7.125000 0.000000 0.000000 
-0.832277 17.924628 2.259585 -0.276896 -14.858063 7.470447 -15.045872 -4.984396 -7.987476 -0.326171 6.093328 20.019662 -3.816865 16.938999 -11.763807 0.842400 -5.854300 -16.362400 10.350569 13.961930 -15.275129 -1.182501 -8.886483 26.836792 -0.227647 -0.613817 -5.635373 -0.019000 -0.890700 2.448000 1.809239 -1.667279 -2.544036 4.456465 -0.351127 -0.805497 5.256756 -9.022784 18.754827 2.934800 -4.783700 13.323400 -78.132562 1.474907 30.435505 11.091093 -21.820704 -2.463234 -0.256143 -1.583890 10.411603 -7.125000 0.000000 0.000000 71.840448 0.429594 22.511190 -15.480037 22.358385 -3.782488 0.657404 -0.540122 18.621717 7.125000 0.000000 0.000000 
-0.825329 17.923017 2.261902 -0.274376 -14.912841 7.448361 -15.081236 -4.741217 -8.064743 -0.316663 6.103615 20.055960 -3.776624 16.786802 -11.685007 0.851400 -5.884800 -16.450500 10.325836 13.973234 -15.273766 -1.185247 -8.891462 26.850528 -0.231073 -0.595372 -5.617770 -0.019700 -0.905900 2.489900 1.824212 -1.685518 -2.523701 4.504360 -0.361664 -0.758694 5.196900 -8.962151 18.804803 2.923600 -4.767600 13.340700 -78.162358 1.407246 30.405475 11.086571 -21.809984 -2.459161 -0.255272 -1.588047 10.430773 -7.125000 0.000000 0.000000 71.795767 0.447312 22.779663 -15.467683 22.343345 -3.775725 0.663617 -0.537268 18.402387 7.125000 0.000000 0.000000 
-0.818884 17.922614 2.264419 -0.247582 -14.959761 7.460349 -15.127728 -4.366127 -8.230457 -0.311121 6.101825 20.059581 -3.693221 16.470916 -11.540799 0.863800 -5.926300 -16.570700 10.263377 13.910754 -15.368273 -1.193761 -8.908643 26.893968 -0.238653 -0.547861 -5.539334 -0.019200 -0.894500 2.458600 1.813204 -1.676361 -2.567147 4.517636 -0.353395 -0.818845 5.163415 -8.942589 18.816977 2.926700 -4.773100 13.315200 -78.160160 1.455129 30.348815 11.089350 -21.815523 -2.459077 -0.253405 -1.593098 10.467668 -7.125000 0.000000 0.000000 71.772941 0.283389 22.869942 -15.507989 22.408484 -3.797413 0.635209 -0.552475 18.569445 7.125000 0.000000 0.000000 
-0.810426 17.918788 2.267239 -0.202357 -14.971081 7.440195 -15.205570 -4.248366 -8.255765 -0.310773 6.093876 20.042901 -3.678428 16.403049 -11.432904 0.889600 -6.011900 -16.818900 10.191267 13.827141 -15.432190 -1.205636 -8.931957 26.955400 -0.240426 -0.530256 -5.471517 -0.016200 -0.821700 2.258400 1.799870 -1.684659 -2.599679 4.506419 -0.355727 -0.869050 5.203014 -8.886786 18.839461 2.975300 -4.760000 13.307400 -78.214536 1.574133 30.234079 11.132673 -21.884209 -2.476955 -0.252778 -1.595587 10.610619 -7.125000 0.000000 0.000000 71.730167 0.162148 22.936772 -15.501491 22.415823 -3.801027 0.612938 -0.580027 18.608546 7.125000 0.000000 0.000000 
-0.801967 17.917177 2.271468 -0.116378 -14.954938 7.413187 -15.330862 -4.227141 -8.216175 -0.315645 6.079949 20.018728 -3.650189 16.325091 -11.487804 0.856800 -5.903000 -16.503100 10.076916 13.707577 -15.490690 -1.218969 -8.959442 27.024530 -0.263837 -0.428701 -5.467694 -0.012700 -0.727600 1.999700 1.768718 -1.682771 -2.615434 4.488099 -0.355245 -0.874606 5.269189 -8.856762 18.879814 3.029200 -4.754000 13.311500 -78.269071 1.670146 30.143966 11.160770 -21.928804 -2.489863 -0.253512 -1.593069 10.746730 -7.125000 0.000000 0.000000 71.700920 0.118682 23.083706 -15.431167 22.330433 -3.770561 0.624018 -0.583078 18.310508 7.125000 0.000000 0.000000 
-0.794515 17.915565 2.271971 -0.090273 -14.908928 7.342186 -15.390632 -4.226661 -8.141688 -0.316353 6.072925 20.006695 -3.655981 16.348268 -11.475366 0.869100 -5.944100 -16.622300 10.048455 13.592559 -15.485700 -1.230904 -8.982096 27.087949 -0.276114 -0.375488 -5.468708 -0.008300 -0.587400 1.614200 1.729488 -1.639847 -2.616246 4.442988 -0.332653 -0.920448 5.207748 -8.902256 18.877079 2.994700 -4.780000 13.281900 -78.211578 1.724353 30.279612 11.181554 -21.964196 -2.498892 -0.251877 -1.594483 10.716809 -7.125000 0.000000 0.000000 71.717486 0.057399 23.011356 -15.402171 22.291724 -3.752769 0.623282 -0.554064 18.425170 7.125000 0.000000 0.000000 
-0.788775 17.913652 2.270360 -0.015997 -14.899777 7.235857 -15.487543 -4.338985 -8.020602 -0.315355 6.075658 20.026037 -3.664926 16.407860 -11.572175 0.867200 -5.937900 -16.604500 9.975000 13.559891 -15.435154 -1.236436 -8.992889 27.115301 -0.270051 -0.400088 -5.434865 -0.008300 -0.588300 1.616500 1.732254 -1.659719 -2.601303 4.535133 -0.341824 -0.957209 5.180591 -8.872866 18.904619 2.993000 -4.774600 13.294400 -78.293016 1.688292 30.084932 11.186013 -21.966022 -2.499343 -0.254343 -1.595247 10.808360 -7.125000 0.000000 0.000000 71.622305 0.063303 23.112190 -15.372287 22.254791 -3.736680 0.619559 -0.536714 18.591994 7.125000 0.000000 0.000000 
-0.784244 17.912746 2.268850 -0.028800 -14.880473 7.221925 -15.475597 -4.175043 -8.096283 -0.309326 6.081274 20.039671 -3.635491 16.274533 -11.422771 0.872800 -5.956400 -16.658100 9.986776 13.591789 -15.431127 -1.242536 -9.002464 27.147731 -0.260599 -0.451836 -5.479757 -0.010800 -0.671200 1.844400 1.765596 -1.663185 -2.593314 4.625352 -0.344352 -0.958623 5.205176 -8.887824 18.970445 3.014600 -4.787800 13.351300 -78.451478 1.573567 29.783100 11.154151 -21.904944 -2.485926 -0.256118 -1.589660 10.998260 -7.125000 0.000000 0.000000 71.526591 0.051195 23.268274 -15.371998 22.256821 -3.737068 0.629342 -0.537764 18.561008 7.125000 0.000000 0.000000 
-0.778605 17.915163 2.267943 -0.159180 -14.855285 7.267370 -15.347736 -4.105678 -8.157300 -0.311057 6.076305 20.013329 -3.629596 16.221711 -11.310693 0.883800 -5.993000 -16.764200 10.108444 13.676864 -15.440211 -1.252400 -9.016175 27.202862 -0.238913 -0.569871 -5.601876 -0.008700 -0.604000 1.659800 1.744745 -1.600851 -2.583303 4.521552 -0.315181 -0.963290 5.217975 -9.005461 19.058200 2.990700 -4.830300 13.419300 -78.386055 1.501212 29.834236 11.183742 -21.948383 -2.502110 -0.252399 -1.583476 10.886867 -7.125000 0.000000 0.000000 71.617236 0.038046 23.270809 -15.384875 22.266556 -3.738958 0.638680 -0.520886 18.569066 7.125000 0.000000 0.000000 
-0.771254 17.915968 2.264218 0.045279 -14.859781 7.260467 -15.574463 -4.056218 -8.242990 -0.308678 6.080841 20.039156 -3.585591 16.080448 -11.295713 0.877900 -5.973300 -16.707100 9.855230 13.624787 -15.539893 -1.251359 -9.021052 27.191640 -0.240846 -0.562084 -5.546193 -0.008600 -0.597100 1.640800 1.671743 -1.600421 -2.618627 4.531939 -0.312758 -1.030095 5.356781 -9.033700 19.020351 3.063800 -4.839000 13.387700 -78.345619 1.495794 29.801638 11.188718 -21.955909 -2.505277 -0.251732 -1.582488 10.775397 -7.125000 0.000000 0.000000 71.691048 -0.048044 23.374863 -15.409486 22.290440 -3.740772 0.635564 -0.475477 18.476358 7.125000 0.000000 0.000000 
